<svg width="77" height="77" viewBox="0 0 77 77" fill="none" xmlns="http://www.w3.org/2000/svg">
<circle cx="38.5" cy="38.5" r="38.5" fill="white"/>
<rect x="4.375" y="4.37439" width="68.25" height="68.2521" rx="34.125" fill="white"/>
<path d="M18.1167 38.501C18.1167 27.2414 27.2411 18.117 38.5007 18.117C49.7603 18.117 58.8828 27.2414 58.8828 38.501C58.8828 48.3504 51.8994 56.5676 42.6117 58.4697C41.2845 58.7415 39.9101 58.8831 38.5073 58.8831H18.1167V38.501Z" fill="#027E6F"/>
<path d="M52.4424 36.4218H43.2251L40.9358 40.1893H48.6476C47.4546 46.7418 40.167 51.2031 32.886 47.429C31.3199 46.6193 30.0452 45.3654 29.2213 43.7992C25.0327 35.8228 30.7542 27.7981 38.3066 27.7981C40.8038 27.7981 43.1017 28.6752 44.907 30.1379C45.1519 30.3363 45.3873 30.5461 45.6132 30.7644C45.616 30.7673 45.6198 30.7711 45.6227 30.7739C45.7318 30.8802 45.8391 30.9885 45.9435 31.0995C45.9492 31.1062 45.9558 31.1128 45.9615 31.1194C46.0659 31.2315 46.1694 31.3454 46.2691 31.4612L49.2209 29.128C48.0373 27.7165 46.5775 26.5281 44.907 25.6538V25.6576C42.6566 24.4768 40.0531 23.8788 37.2996 24.0724C30.1752 24.5632 24.3996 30.4692 24.0522 37.6007C23.6564 45.7887 30.2018 52.5728 38.3019 52.5728C46.4019 52.5728 52.5714 46.1694 52.5714 38.3022C52.5714 37.6615 52.523 37.035 52.4424 36.4218Z" fill="white"/>
</svg>
