<svg width="74" height="74" viewBox="0 0 74 74" fill="none" xmlns="http://www.w3.org/2000/svg">
<circle cx="37" cy="37" r="37" fill="white"/>
<path d="M32.9607 32.86L36.7483 36.7357C36.8364 36.8238 36.9245 36.8742 37 36.8742C37.0755 36.8742 37.1636 36.8238 37.2517 36.7357L41.0393 32.86C41.1274 32.7719 41.1777 32.6838 41.1777 32.6083C41.1777 32.4825 41.1148 32.4322 40.9764 32.4322H33.0362C32.8978 32.4322 32.8348 32.4951 32.8348 32.6083C32.8222 32.6838 32.8726 32.7719 32.9607 32.86ZM55.1204 19.081C55.1204 18.9426 55.0574 18.8796 54.9316 18.8796C54.8561 18.8796 54.7806 18.9174 54.7051 18.9929L51.597 22.1388V51.836L54.7051 55.0071C54.7806 55.0826 54.8561 55.1204 54.9316 55.1204C55.0574 55.1204 55.1204 55.0574 55.1204 54.919V19.081ZM18.8796 54.919C18.8796 55.0574 18.9426 55.1204 19.0684 55.1204C19.1439 55.1204 19.2194 55.0826 19.2949 55.0071L22.403 51.836V22.1388L19.2949 18.9929C19.2194 18.9174 19.1313 18.8796 19.0684 18.8796C18.9426 18.8796 18.8796 18.9426 18.8796 19.081V54.919ZM26.9583 26.7821H47.0543L49.873 23.9131C49.9485 23.8376 49.9863 23.7621 49.9863 23.6866C49.9863 23.5607 49.9233 23.4978 49.7849 23.4978H24.2151C24.0767 23.4978 24.0137 23.5607 24.0137 23.6866C24.0137 23.7621 24.0515 23.8376 24.127 23.9131L26.9583 26.7821ZM24.127 50.0869C24.0515 50.1624 24.0137 50.2379 24.0137 50.3134C24.0137 50.4393 24.0767 50.4896 24.2151 50.4896H49.7723C49.9108 50.4896 49.9737 50.4267 49.9737 50.3134C49.9737 50.2379 49.9359 50.1624 49.8604 50.0869L47.0417 47.2179H26.9583L24.127 50.0869ZM45.5317 45.6827C45.6072 45.7582 45.6827 45.7959 45.7582 45.7959C45.884 45.7959 45.9343 45.733 45.9343 45.5946V28.4054C45.9343 28.267 45.8714 28.2041 45.7582 28.2041C45.6827 28.2041 45.6072 28.2418 45.5317 28.3173L42.5871 31.3122V42.7004L45.5317 45.6827ZM31.4129 42.6878V31.3122L28.4683 28.3173C28.3928 28.2418 28.3173 28.2041 28.2418 28.2041C28.116 28.2041 28.0657 28.2796 28.0657 28.4054V45.5946C28.0657 45.733 28.1286 45.7959 28.2418 45.7959C28.3173 45.7959 28.3928 45.7582 28.4683 45.6827L31.4129 42.6878Z" fill="black"/>
</svg>
