<svg width="83" height="83" viewBox="0 0 83 83" fill="none" xmlns="http://www.w3.org/2000/svg">
<circle cx="41.5" cy="41.5" r="41.5" fill="white"/>
<path d="M5.42529 41.0924C5.42529 36.1181 9.41421 32.2806 14.3541 32.2806C19.294 32.2806 23.1175 36.194 23.1175 40.9062C23.1175 42.8834 22.4907 44.73 21.4091 46.2316L24.3992 49.6142H20.6374L19.4388 48.2019C17.9919 49.249 16.2007 49.8691 14.2095 49.8691C9.33861 49.8697 5.42529 46.0184 5.42529 41.0924ZM14.3541 47.1484C15.6289 47.1484 16.7655 46.7764 17.6887 46.1287L15.9113 44.0342H19.4594C19.8727 43.187 20.1001 42.2085 20.1001 41.1335C20.1001 37.5991 17.6267 35.0982 14.2991 35.0982C10.9714 35.0982 8.49802 37.6061 8.49802 41.0574C8.49802 44.5087 10.937 47.1484 14.3541 47.1484ZM25.3221 36.6348H28.1466V44.3856C28.1466 46.2322 29.0283 47.3757 30.7095 47.3757C32.3907 47.3757 33.5204 46.2322 33.5204 44.3856V36.6348H36.3451V49.6145H33.5204V48.0987C32.6523 49.1459 31.3844 49.7796 29.8964 49.7796C27.2993 49.7796 25.5767 47.9264 25.3496 45.2879C25.329 45.0535 25.3221 44.8056 25.3221 44.3786V36.6348ZM45.0121 36.3594C48.9596 36.3594 51.5295 39.6456 51.1506 44.0064H41.347C41.5333 45.9561 43.2553 47.3685 45.3634 47.3685C46.6933 47.3685 47.8574 46.8103 48.9185 45.6531L50.7097 47.5408C49.1114 49.1806 47.3476 49.9178 45.2945 49.9178C41.2433 49.9178 38.4808 47.0519 38.4808 43.18C38.4814 39.2733 41.2989 36.3594 45.0121 36.3594ZM48.2847 41.7604C47.9608 39.9688 46.6519 38.8945 44.9501 38.8945C43.2483 38.8945 41.8223 40.0586 41.4432 41.7604H48.2847ZM54.2853 45.6531C55.3049 46.7898 56.5933 47.4447 57.8678 47.4447C59.0459 47.4447 59.8175 46.8523 59.8175 45.9978C59.8175 45.309 59.3077 44.7786 58.2742 44.5029L56.6828 44.0829C54.3406 43.463 53.1072 42.1952 53.1072 40.4039C53.1072 38.1923 54.9813 36.3738 57.7097 36.3738C59.5215 36.3738 61.1613 37.1661 62.3326 38.4267L60.5553 40.2799C59.7561 39.4257 58.7432 38.9089 57.6755 38.9089C56.5389 38.9089 55.8014 39.4807 55.8014 40.2249C55.8014 40.8587 56.2976 41.3548 57.5996 41.6784L59.0256 42.0298C61.3472 42.6015 62.5256 44.0968 62.5256 45.9086C62.5256 48.32 60.431 49.9181 57.765 49.9181C55.8292 49.9181 53.9962 49.0708 52.4946 47.5411L54.2853 45.6531ZM64.4197 33.8859H67.1616V36.6348H69.2631L71.3646 39.1152H67.1622V44.5715C67.1622 46.3492 67.9338 47.1623 69.6147 47.1623H70.1935V49.6426H69.2292C66.0945 49.6426 64.4205 47.8308 64.4205 44.5652V33.8859H64.4197Z" fill="#034C1F"/>
<path d="M72.2406 36.5C71.5466 36.5 71.0301 35.9569 71.0301 35.2695C71.0301 34.5821 71.5466 34.0355 72.2406 34.0355C72.9347 34.0355 73.4511 34.5787 73.4511 35.266C73.4511 35.9534 72.935 36.5 72.2406 36.5ZM72.2406 34.2502C71.6474 34.2502 71.2549 34.6827 71.2549 35.2692C71.2549 35.8558 71.6471 36.2853 72.2406 36.2853C72.8342 36.2853 73.2264 35.8529 73.2264 35.2663C73.2264 34.6795 72.8344 34.2502 72.2406 34.2502ZM72.512 35.8897L72.2974 35.4167H72.046V35.8897H71.8215V34.6056H72.2945C72.539 34.6056 72.7504 34.7464 72.7504 35.0079C72.7504 35.1754 72.6769 35.3098 72.519 35.3802L72.7571 35.8897H72.512ZM72.2945 34.8133H72.0431V35.209H72.2945C72.4286 35.209 72.5158 35.1487 72.5158 35.0079C72.5158 34.8773 72.415 34.8133 72.2945 34.8133Z" fill="#034C1F"/>
</svg>
