<svg width="116" height="24" viewBox="0 0 116 24" fill="none" xmlns="http://www.w3.org/2000/svg">
<path d="M16.5714 14.0452C16.5714 12.5618 15.9456 11.0785 14.81 10.221L10.754 7.04576C10.36 6.72129 10.1283 6.23458 10.1283 5.72469C10.1283 4.95985 10.6845 3.75466 12.0288 3.75466C12.4923 3.75466 12.8168 3.89372 13.2108 4.17184L15.2503 5.74786C16.1774 6.46634 17.3826 6.83717 18.5646 6.83717C21.4385 6.83717 23.5245 4.68173 23.5245 2.38723C23.5245 1.90052 23.4317 1.34427 23.2232 0.880736H19.8857C20.1638 1.29792 20.2565 1.57604 20.2565 1.92369C20.2565 2.92029 19.5149 3.68513 18.4487 3.68513C18.0084 3.68513 17.6839 3.54607 16.5714 2.73488L15.1345 1.66875C14.2306 0.99662 13.1181 0.579438 12.0751 0.579438C9.89649 0.579438 6.95304 2.38723 6.95304 5.63198C6.95304 7.13847 7.57881 8.57543 8.71448 9.45615L12.7472 12.6314C13.1644 12.9558 13.3962 13.4194 13.3962 13.9293C13.3962 14.7173 12.8399 15.9225 11.4957 15.9225C11.0322 15.9225 10.7077 15.7834 10.3137 15.5053L8.27412 13.9293C7.34705 13.2108 6.14185 12.84 4.95984 12.84C2.08591 12.84 0 14.9954 0 17.2899C0 17.7766 0.0927072 18.3329 0.301298 18.7964H3.63876C3.36064 18.3792 3.26793 18.1011 3.26793 17.7534C3.26793 16.7568 4.00959 15.992 5.07572 15.992C5.51608 15.992 5.84055 16.1311 6.95304 16.9423L8.39 18.0084C9.2939 18.6805 10.4064 19.0977 11.4493 19.0977C13.628 19.0977 16.5714 17.2899 16.5714 14.0452Z" fill="#F9FBF7"/>
<path d="M115.954 12.5856C115.977 12.3538 116 11.9366 116 11.5658C116.023 7.46352 113.311 4.72865 109.394 4.72865C107.378 4.72865 105.617 5.44714 104.319 6.74504C102.998 8.06611 102.279 9.89708 102.279 11.8903C102.279 13.9067 102.998 15.7376 104.342 17.0819C105.663 18.3798 107.471 19.0983 109.51 19.0983C112.616 19.0983 115.096 17.4295 115.814 14.7642L115.954 14.3934H113.033L112.964 14.5788C112.593 15.6913 111.225 16.3634 109.649 16.3634C107.332 16.3634 105.733 14.9264 105.454 12.8405H115.884L115.954 12.5856ZM105.57 10.3838C106.034 8.55283 107.494 7.41716 109.371 7.41716C111.272 7.41716 112.686 8.59918 112.964 10.3838H105.57Z" fill="#F9FBF7"/>
<path d="M97.8756 0.880894V6.51286C96.7399 5.4699 95.1871 4.8673 93.4488 4.8673C91.5483 4.8673 89.8101 5.58578 88.5585 6.86051C87.2838 8.15841 86.5885 9.98938 86.5885 12.0058C86.5885 14.0221 87.2838 15.8531 88.5585 17.151C89.8101 18.4257 91.5483 19.1442 93.4256 19.1442C95.1639 19.1442 96.7399 18.5416 97.8756 17.4987V18.8429H100.958V0.880894H97.8756ZM96.7167 15.1114C95.9519 15.8995 94.9321 16.3166 93.7733 16.3166C91.4093 16.3166 89.7174 14.532 89.7174 12.0058C89.7174 9.50266 91.4093 7.69487 93.7733 7.69487C94.9321 7.69487 95.9751 8.13523 96.7167 8.90007C97.4816 9.68808 97.8988 10.8006 97.8988 12.0058C97.8988 13.2341 97.4816 14.3234 96.7167 15.1114Z" fill="#F9FBF7"/>
<path d="M83.8768 3.96323C84.1317 3.96323 84.3867 3.91688 84.6416 3.80099C84.8502 3.70829 85.1052 3.54605 85.2674 3.38381C85.476 3.1984 85.615 2.96663 85.7078 2.78122C85.8236 2.50309 85.87 2.22497 85.87 1.97003C85.87 0.880718 84.9661 0 83.8768 0C82.7643 0 81.8604 0.880718 81.8604 1.9932C81.8604 2.24815 81.9068 2.52627 82.0458 2.73486C82.1153 2.96663 82.2544 3.1984 82.4862 3.40699C82.6484 3.56923 82.857 3.70829 83.0888 3.80099C83.3437 3.91688 83.5987 3.96323 83.8768 3.96323Z" fill="#F9FBF7"/>
<path d="M85.2675 5.23765H82.324V18.8193H85.2675V5.23765Z" fill="#F9FBF7"/>
<path d="M75.8809 19.0983C78.8012 19.0983 80.8639 17.3368 80.8871 14.741C80.8871 12.7478 79.7051 11.4963 77.1556 10.801L75.4869 10.3606C74.0268 9.98979 73.4937 9.52625 73.4937 8.83095C73.4937 8.62236 73.5401 8.41377 73.5864 8.2747C73.656 8.06611 73.7487 7.92705 73.9109 7.81117C74.2585 7.41716 74.7916 7.25493 75.4637 7.25493C76.808 7.25493 77.8046 7.90388 78.1291 8.97001L78.1986 9.15542H80.9103L80.8408 8.80777C80.3772 6.46691 78.1522 4.72865 75.4174 4.72865C74.0731 4.72865 72.8216 5.14584 71.964 5.86432C71.0601 6.62915 70.6198 7.69528 70.6198 8.92365C70.6198 9.96661 70.9443 10.7778 71.5469 11.4267C72.1958 12.0989 73.1229 12.5624 74.3513 12.9101L75.9736 13.3736C77.4106 13.7676 77.9668 14.2311 77.9668 14.996C77.9668 15.923 77.1325 16.572 75.6955 16.572C74.189 16.572 73.0765 15.8767 72.8448 14.741L72.7752 14.5324H70.249V14.8337C70.388 16.0853 71.037 17.1746 72.0799 17.9394C73.0997 18.6811 74.4671 19.0983 75.8809 19.0983Z" fill="#F9FBF7"/>
<path d="M62.2065 18.8433H65.2659V11.2182C65.2659 8.97001 66.6333 7.5794 68.7888 7.55622C69.2059 7.55622 69.5536 7.60258 69.9476 7.69528L70.2952 7.83435V4.93725L70.0866 4.86772C69.6463 4.77501 69.2059 4.72865 68.8119 4.72865C67.3518 4.72865 66.1466 5.40078 65.2659 6.67551V5.05313H62.2065V18.8433Z" fill="#F9FBF7"/>
<path d="M60.7696 12.5856C60.7928 12.3538 60.8159 11.9366 60.8159 11.5426C60.7928 7.46352 58.1274 4.72865 54.2337 4.72865C52.2405 4.72865 50.4791 5.44714 49.2044 6.74504C47.9065 8.06611 47.188 9.89708 47.188 11.8903C47.188 13.9067 47.9296 15.7376 49.2507 17.0587C50.5486 18.3798 52.3332 19.0983 54.3728 19.0983C57.4553 19.0983 59.8889 17.4295 60.6073 14.7642L60.7464 14.3934H57.8493L57.7798 14.5788C57.4089 15.6913 56.0647 16.3634 54.4887 16.3634C52.1942 16.3634 50.6181 14.9264 50.3632 12.8405H60.7L60.7696 12.5856ZM50.4559 10.3838C50.9194 8.55283 52.3564 7.41716 54.2105 7.41716C56.0879 7.41716 57.4785 8.59918 57.7566 10.3838H50.4559Z" fill="#F9FBF7"/>
<path d="M44.0823 6.72186C42.8539 5.44714 41.1388 4.72865 39.3542 4.72865C37.5233 4.72865 35.9472 5.49349 34.8347 6.90727V5.02995H31.7754V23.8495H34.8347V17.0124C35.9704 18.3798 37.5233 19.1446 39.3542 19.1446C41.1388 19.1446 42.8539 18.4261 44.0823 17.1514C45.3338 15.8303 46.0291 13.9762 46.0291 11.9366C46.0291 9.89708 45.3338 8.04294 44.0823 6.72186ZM41.7878 15.1119C41.0461 15.8767 40.0495 16.2939 38.9139 16.2939C36.5498 16.2939 34.8347 14.4861 34.8347 11.9366C34.8347 9.41037 36.5498 7.5794 38.8907 7.5794C40.0495 7.5794 41.0461 8.01976 41.7878 8.78459C42.5526 9.59578 42.9698 10.7083 42.9698 11.9366C42.9698 13.1882 42.5526 14.3007 41.7878 15.1119Z" fill="#F9FBF7"/>
<path d="M23.1768 19.0974C24.6833 19.0974 25.9348 18.5643 26.8156 17.5909V18.7729H29.9213V5.23765H26.8156V12.9323C26.8156 14.9719 25.6799 16.2466 23.8489 16.2466C23.0146 16.2466 22.2961 15.9917 21.7862 15.505C21.23 14.9719 20.975 14.2071 20.975 13.2568V8.18111H17.8693V13.6045C17.8693 15.2269 18.3792 16.6175 19.3758 17.6141C20.3261 18.5643 21.6471 19.0974 23.1768 19.0974Z" fill="#F9FBF7"/>
</svg>
